<svg width="22" height="22" viewBox="0 0 22 22" fill="none" xmlns="http://www.w3.org/2000/svg">
<path d="M9.62513 11C9.62513 11.2984 9.74366 11.5845 9.95464 11.7955C10.1656 12.0065 10.4518 12.125 10.7501 12.125C11.0485 12.125 11.3346 12.0065 11.5456 11.7955C11.7566 11.5845 11.8751 11.2984 11.8751 11C11.8751 10.7016 11.7566 10.4155 11.5456 10.2045C11.3346 9.99353 11.0485 9.875 10.7501 9.875C10.4518 9.875 10.1656 9.99353 9.95464 10.2045C9.74366 10.4155 9.62513 10.7016 9.62513 11ZM14.3126 11C14.3126 11.2984 14.4312 11.5845 14.6421 11.7955C14.8531 12.0065 15.1393 12.125 15.4376 12.125C15.736 12.125 16.0221 12.0065 16.2331 11.7955C16.4441 11.5845 16.5626 11.2984 16.5626 11C16.5626 10.7016 16.4441 10.4155 16.2331 10.2045C16.0221 9.99353 15.736 9.875 15.4376 9.875C15.1393 9.875 14.8531 9.99353 14.6421 10.2045C14.4312 10.4155 14.3126 10.7016 14.3126 11ZM4.93763 11C4.93763 11.2984 5.05616 11.5845 5.26714 11.7955C5.47812 12.0065 5.76426 12.125 6.06263 12.125C6.361 12.125 6.64715 12.0065 6.85813 11.7955C7.06911 11.5845 7.18763 11.2984 7.18763 11C7.18763 10.7016 7.06911 10.4155 6.85813 10.2045C6.64715 9.99353 6.361 9.875 6.06263 9.875C5.76426 9.875 5.47812 9.99353 5.26714 10.2045C5.05616 10.4155 4.93763 10.7016 4.93763 11ZM20.4345 6.93125C19.9048 5.67266 19.1454 4.54297 18.1775 3.57266C17.2163 2.60796 16.0752 1.84114 14.8189 1.31563C13.5298 0.774219 12.1611 0.5 10.7501 0.5H10.7033C9.28295 0.507031 7.90716 0.788281 6.61341 1.34141C5.36785 1.87232 4.23747 2.64049 3.28529 3.60312C2.3267 4.57109 1.57435 5.69609 1.05404 6.95C0.514977 8.24844 0.243102 9.62891 0.250133 11.0492C0.258086 12.6769 0.643161 14.2806 1.37513 15.7344V19.2969C1.37513 19.5828 1.48872 19.857 1.69091 20.0592C1.8931 20.2614 2.16732 20.375 2.45326 20.375H6.0181C7.47192 21.107 9.07559 21.492 10.7033 21.5H10.7525C12.1564 21.5 13.5181 21.2281 14.8001 20.6961C16.0501 20.1768 17.1869 19.419 18.147 18.4648C19.115 17.5063 19.8767 16.3859 20.4087 15.1367C20.9619 13.843 21.2431 12.4672 21.2501 11.0469C21.2572 9.61953 20.9806 8.23438 20.4345 6.93125ZM16.8931 17.1969C15.2501 18.8234 13.0704 19.7188 10.7501 19.7188H10.7103C9.29701 19.7117 7.8931 19.3602 6.65326 18.6992L6.45638 18.5938H3.15638V15.2938L3.05091 15.0969C2.38998 13.857 2.03841 12.4531 2.03138 11.0398C2.02201 8.70312 2.91498 6.50937 4.55326 4.85703C6.1892 3.20469 8.37591 2.29062 10.7126 2.28125H10.7525C11.9244 2.28125 13.0611 2.50859 14.1322 2.95859C15.1775 3.39687 16.115 4.02734 16.9212 4.83359C17.7251 5.6375 18.3579 6.57734 18.7962 7.62266C19.2509 8.70547 19.4783 9.85391 19.4736 11.0398C19.4595 13.3742 18.5431 15.5609 16.8931 17.1969Z" fill="#8C8C8C"/>
</svg>
