<svg width="19" height="20" viewBox="0 0 19 20" fill="none" xmlns="http://www.w3.org/2000/svg">
<path d="M18.562 4.87422L14.751 1.06328C14.5752 0.8875 14.3596 0.758594 14.1252 0.688281V0.625H1.00024C0.5854 0.625 0.250244 0.960156 0.250244 1.375V18.625C0.250244 19.0398 0.5854 19.375 1.00024 19.375H18.2502C18.6651 19.375 19.0002 19.0398 19.0002 18.625V5.93359C19.0002 5.53516 18.8432 5.15547 18.562 4.87422ZM6.62524 2.3125H12.6252V4.75H6.62524V2.3125ZM17.3127 17.6875H1.93774V2.3125H5.12524V5.5C5.12524 5.91484 5.4604 6.25 5.87524 6.25H13.3752C13.7901 6.25 14.1252 5.91484 14.1252 5.5V2.82344L17.3127 6.01094V17.6875ZM9.62524 8.35938C7.76196 8.35938 6.25024 9.87109 6.25024 11.7344C6.25024 13.5977 7.76196 15.1094 9.62524 15.1094C11.4885 15.1094 13.0002 13.5977 13.0002 11.7344C13.0002 9.87109 11.4885 8.35938 9.62524 8.35938ZM9.62524 13.6094C8.58931 13.6094 7.75024 12.7703 7.75024 11.7344C7.75024 10.6984 8.58931 9.85938 9.62524 9.85938C10.6612 9.85938 11.5002 10.6984 11.5002 11.7344C11.5002 12.7703 10.6612 13.6094 9.62524 13.6094Z" fill="#8C8C8C"/>
</svg>
