<svg width="18" height="20" viewBox="0 0 18 20" fill="none" xmlns="http://www.w3.org/2000/svg">
<path d="M14.4375 13.5625C13.7695 13.5625 13.1531 13.7969 12.6703 14.1883L7.81406 10.675C7.89538 10.2287 7.89538 9.77133 7.81406 9.325L12.6703 5.81172C13.1531 6.20312 13.7695 6.4375 14.4375 6.4375C15.9891 6.4375 17.25 5.17656 17.25 3.625C17.25 2.07344 15.9891 0.8125 14.4375 0.8125C12.8859 0.8125 11.625 2.07344 11.625 3.625C11.625 3.89687 11.6625 4.15703 11.7352 4.40547L7.12266 7.74531C6.43828 6.83828 5.35078 6.25 4.125 6.25C2.05312 6.25 0.375 7.92812 0.375 10C0.375 12.0719 2.05312 13.75 4.125 13.75C5.35078 13.75 6.43828 13.1617 7.12266 12.2547L11.7352 15.5945C11.6625 15.843 11.625 16.1055 11.625 16.375C11.625 17.9266 12.8859 19.1875 14.4375 19.1875C15.9891 19.1875 17.25 17.9266 17.25 16.375C17.25 14.8234 15.9891 13.5625 14.4375 13.5625ZM14.4375 2.40625C15.1102 2.40625 15.6562 2.95234 15.6562 3.625C15.6562 4.29766 15.1102 4.84375 14.4375 4.84375C13.7648 4.84375 13.2188 4.29766 13.2188 3.625C13.2188 2.95234 13.7648 2.40625 14.4375 2.40625ZM4.125 12.0625C2.98828 12.0625 2.0625 11.1367 2.0625 10C2.0625 8.86328 2.98828 7.9375 4.125 7.9375C5.26172 7.9375 6.1875 8.86328 6.1875 10C6.1875 11.1367 5.26172 12.0625 4.125 12.0625ZM14.4375 17.5938C13.7648 17.5938 13.2188 17.0477 13.2188 16.375C13.2188 15.7023 13.7648 15.1562 14.4375 15.1562C15.1102 15.1562 15.6562 15.7023 15.6562 16.375C15.6562 17.0477 15.1102 17.5938 14.4375 17.5938Z" fill="#8C8C8C"/>
</svg>
